<?xml version="1.0" encoding="UTF-8" standalone="no"?>
<!-- Created with Inkscape (http://www.inkscape.org/) -->
<svg xmlns:dc="http://purl.org/dc/elements/1.1/" xmlns:cc="http://creativecommons.org/ns#" xmlns:rdf="http://www.w3.org/1999/02/22-rdf-syntax-ns#" xmlns:svg="http://www.w3.org/2000/svg" xmlns="http://www.w3.org/2000/svg" version="1.1" width="17" height="16.999861" id="svg2" xml:space="preserve"><metadata id="metadata8"><rdf:RDF><cc:Work rdf:about=""><dc:format>image/svg+xml</dc:format><dc:type rdf:resource="http://purl.org/dc/dcmitype/StillImage"/><dc:title/></cc:Work></rdf:RDF></metadata><defs id="defs6"><clipPath id="clipPath16"><path d="m 0,99.21 99.211,0 L 99.211,0 0,0 0,99.21 z" id="path18"/></clipPath></defs><g transform="matrix(1.25,0,0,-1.25,-3.7499999e-4,17.000236)" id="g10"><g transform="matrix(0.13708225,0,0,0.13708225,2.5887532e-4,2.5887532e-4)" id="g12"><g clip-path="url(#clipPath16)" id="g14"><g transform="translate(59.1953,86.1553)" id="g20"><path d="M 0,0 C 14.797,0 26.789,-12.005 26.789,-26.801 26.789,-41.597 14.797,-53.59 0,-53.59 c -14.795,0 -26.788,11.993 -26.788,26.789 C -26.788,-12.005 -14.795,0 0,0 m 0.061,13.055 c -10.239,0 -20.482,-3.879 -28.266,-11.662 -13.643,-13.645 -15.331,-34.846 -5.062,-50.357 l -23.591,-23.615 c -3.116,-3.116 -3.116,-8.124 0,-11.239 3.115,-3.116 8.123,-3.116 11.238,0 l 23.616,23.603 c 15.512,-10.28 36.707,-8.597 50.356,5.05 C 43.92,-39.597 43.895,-14.188 28.327,1.38 20.543,9.165 10.301,13.055 0.061,13.055" id="path22" style="fill:#404447;fill-opacity:1;fill-rule:nonzero;stroke:none"/></g></g></g></g></svg>